<?xml version="1.0" standalone="no"?><!DOCTYPE svg PUBLIC "-//W3C//DTD SVG 1.1//EN" "http://www.w3.org/Graphics/SVG/1.1/DTD/svg11.dtd"><svg t="1681650722240" class="icon" viewBox="0 0 1024 1024" version="1.1" xmlns="http://www.w3.org/2000/svg" p-id="5130" xmlns:xlink="http://www.w3.org/1999/xlink" width="200" height="200"><path d="M14.775876 630.785336a510.954053 510.954053 0 1 0 993.90954-237.571049 510.954053 510.954053 0 1 0-993.90954 237.571049Z" fill="#FFCE00" p-id="5131"></path><path d="M511.74665 1.040859c-18.925171 0-37.589552 1.109636-55.982916 3.109026 255.845201 27.894301 454.971137 244.574983 454.971137 507.845027 0 263.264931-199.125936 479.945613-454.971137 507.839914 18.393364 2.004503 37.057745 3.114139 55.982916 3.114139 282.195216 0 510.959167-228.763951 510.959167-510.954053C1022.705817 229.80481 793.941866 1.040859 511.74665 1.040859z" fill="#F2AD11" p-id="5132"></path><path d="M73.946744 349.584115c-24.959135 75.296716-23.532461 143.521421 3.190842 152.372939 26.718189 8.856632 68.60822-45.004169 93.567355-120.305998s23.532461-143.516307-3.185728-152.37294c-26.718189-8.856632-68.613333 45.009283-93.572469 120.305999z" fill="#FFFFFF" opacity=".3" p-id="5133"></path><path d="M184.056366 389.43896c-4.740241-29.372111 6.218051-62.415736 29.566425-85.917515 23.164287-23.67564 56.836876-36.873658 90.187313-36.848091 33.35555-0.097157 67.05882 13.111089 90.233334 36.796955 23.373941 23.496666 34.332234 56.586313 29.520403 85.973765-17.314409-24.565394-35.436757-42.022982-55.757921-52.914799-20.121737-10.973633-41.96162-15.990005-63.995816-16.194547-22.034197 0.127838-43.904761 5.154437-64.041839 16.133185-20.346732 10.88159-38.469079 28.390313-55.711899 52.971047zM599.9448 389.43896c-4.745355-29.372111 6.218051-62.415736 29.566425-85.917515 23.159173-23.67564 56.836876-36.873658 90.187312-36.848091 33.35555-0.097157 67.05882 13.111089 90.233335 36.796955 23.373941 23.496666 34.332234 56.586313 29.520403 85.973765-17.314409-24.565394-35.436757-42.022982-55.757921-52.914799-20.121737-10.973633-41.96162-15.990005-63.995817-16.194547-22.034197 0.127838-43.904761 5.154437-64.041838 16.133185-20.346732 10.88159-38.474193 28.390313-55.711899 52.971047z" fill="#7E1817" p-id="5134"></path><path d="M914.12514 518.289666c0 81.59147-30.773218 156.202973-81.233523 212.564291-3.937417 4.295364-7.874835 8.590729-11.986112 12.702006a325.169314 325.169314 0 0 1-41.690602 35.068583 315.755307 315.755307 0 0 1-146.18557 56.00337c-12.165086 1.431788-24.693232 2.147682-37.216265 2.147682H416.706599c-12.523033 0-25.051179-0.715894-37.216265-2.147682a313.996253 313.996253 0 0 1-146.364543-56.182344c-19.681973-13.954821-37.753185-29.87835-53.676715-47.775702-50.455191-56.361318-81.05455-130.793847-81.054549-212.385317h815.730613z" fill="#FFFFFF" p-id="5135"></path><path d="M98.394527 518.289666c0 16.347952 1.549399 32.302163 3.916963 47.990471h551.340706c109.035781 0 170.188475 129.116609 98.041693 210.871712l-1.508491 1.697692c-3.937417 4.295364-7.874835 8.590729-11.986112 12.702006-8.44755 8.44755-17.50361 16.168979-26.82046 23.58871a316.44052 316.44052 0 0 0 67.830963-36.510598 325.169314 325.169314 0 0 0 41.690603-35.068582 401.565439 401.565439 0 0 0 11.986112-12.702007c50.455191-56.361318 81.233523-130.97282 81.233523-212.56429H98.394527z" fill="#E8E6E6" p-id="5136"></path><path d="M233.125791 517.573772v260.876914c-19.681973-13.954821-37.753185-29.87835-53.676715-47.775703v-213.101211H233.125791zM433.167049 517.573772v319.20694h-16.46045c-12.523033 0-25.051179-0.715894-37.216265-2.147682v-317.059258H433.167049zM633.029333 517.573772v317.059258c-12.165086 1.431788-24.693232 2.147682-37.216265 2.147682h-16.46045v-319.20694h53.676715zM832.891617 517.573772v213.280185c-3.937417 4.295364-7.874835 8.590729-11.986112 12.702006a325.169314 325.169314 0 0 1-41.690602 35.068583v-261.055887h53.676714z" fill="#C3C6C2" p-id="5137"></path></svg>