<?xml version="1.0" standalone="no"?><!DOCTYPE svg PUBLIC "-//W3C//DTD SVG 1.1//EN" "http://www.w3.org/Graphics/SVG/1.1/DTD/svg11.dtd"><svg t="1681649669642" class="icon" viewBox="0 0 1024 1024" version="1.1" xmlns="http://www.w3.org/2000/svg" p-id="2668" xmlns:xlink="http://www.w3.org/1999/xlink" width="200" height="200"><path d="M824.4 739.2h26.2c12.6 0 23.3-14.7 23.3-32.1v-76.3l-3.3 3.1c-7.7 5.8-16.7 9.7-26.2 10.8-2.6 0.3-5.2 0.4-7.9 0.4h-79.6v125.5h36c0-17.3 14.1-31.4 31.5-31.4z" fill="#F5B200" p-id="2669"></path><path d="M216.5 896.9h445.4c17.7 0 32.2-14.4 32.2-32.2V773c-4.1 13.2-16.2 22.8-30.8 22.8H215.9c-15.4 0-28.3-10.8-31.5-25.3v94.1c-0.1 17.9 14.4 32.3 32.1 32.3z" fill="#FFD524" p-id="2670"></path><path d="M850.6 65.1H452.5c-38.2 0-71.4 27-82.4 67.3-4.6 16.7 5.2 34 22 38.6 16.7 4.6 34-5.2 38.6-22 3.4-12.4 12.4-21.1 21.8-21.1h398.1c12.6 0 23.3 14.7 23.3 32.1v547.1c0 17.4-10.7 32.1-23.3 32.1h-26.2c-17.3 0-31.4 14.1-31.4 31.4 0 17.3 14.1 31.4 31.4 31.4h26.2c47.5 0 86.1-42.6 86.1-94.9V160c0-52.3-38.7-94.9-86.1-94.9z" fill="#333333" p-id="2671"></path><path d="M756.9 434.8c0-0.6-0.1-1.1-0.2-1.7-0.1-1.5-0.2-2.9-0.4-4.4-0.2-0.9-0.5-1.8-0.8-2.7-0.3-1-0.6-2.1-1-3.1s-1-1.9-1.5-2.8c-0.5-0.9-0.9-1.8-1.4-2.6-0.8-1.2-1.7-2.2-2.6-3.2-0.4-0.5-0.7-1-1.2-1.5L550.3 212.5s-0.1 0-0.1-0.1l-0.1-0.1c-0.8-0.8-1.8-1.5-2.7-2.2-4-3.2-8.6-5.4-13.4-6.4-0.2 0-0.4 0-0.6-0.1-1.8-0.3-3.7-0.5-5.5-0.5H216.5c-52.4 0-95 42.6-95 95v42.1c0 17.3 14.1 31.4 31.4 31.4s31.4-14.1 31.4-31.4v-42.1c0-17.7 14.4-32.2 32.2-32.2h280v109.9c0 27 0 90.4 78.6 90.4h119V864.8c0 17.7-14.4 32.2-32.2 32.2H216.5c-17.7 0-32.2-14.4-32.2-32.2V522.7c0-17.3-14.1-31.4-31.4-31.4s-31.4 14.1-31.4 31.4v342.1c0 52.4 42.6 95 95 95h445.4c52.4 0 95-42.6 95-95v-430z m-181.8-31.4c-8.1 0-11.8-1-13.1-1.5-0.8-1.9-2.7-8.1-2.7-26.1v-64.7l91 92.3h-75.2z" fill="#333333" p-id="2672"></path><path d="M152.9 466.4c17.3 0 31.4-14.1 31.4-31.4v-4c0-17.3-14.1-31.4-31.4-31.4s-31.4 14.1-31.4 31.4v4c0 17.3 14.1 31.4 31.4 31.4z" fill="#333333" p-id="2673"></path></svg>