<?xml version="1.0" standalone="no"?><!DOCTYPE svg PUBLIC "-//W3C//DTD SVG 1.1//EN" "http://www.w3.org/Graphics/SVG/1.1/DTD/svg11.dtd"><svg t="1681651647023" class="icon" viewBox="0 0 1024 1024" version="1.1" xmlns="http://www.w3.org/2000/svg" p-id="1557" xmlns:xlink="http://www.w3.org/1999/xlink" width="200" height="200"><path d="M286.72 240.565073c2.297756-2.297756 4.795317-4.295805 7.39278-6.094049-6.493659 0.599415-12.587707 2.097951-16.384 4.295805-0.199805 0.099902-0.39961 0.199805-0.599414 0.39961 2.697366 0.699317 5.294829 1.298732 7.592585 2.097951 0.699317-0.39961 1.198829-0.499512 1.998049-0.699317zM151.751805 298.008976c-3.69639 1.398634-6.793366 3.196878-8.891317 4.895219-1.398634 0.999024-3.096976 2.597463-4.795317 4.395707 3.796293-1.198829 7.492683-2.397659 10.789463-3.796292 0.999024-1.998049 1.998049-3.69639 2.897171-5.494634zM540.072585 402.007415c-0.299707 0.899122-0.499512 1.698341-0.799219 2.597463 0.199805-0.899122 0.499512-1.698341 0.799219-2.597463zM603.510634 307.399805v0.299707c0.199805 0.099902 0.299707 0.299707 0.499512 0.499512 1.798244-0.499512 3.396683-0.599415 5.095025-0.699317-0.999024-1.898146-1.998049-3.69639-3.196878-4.595512-0.699317-0.79922-1.898146-1.698341-3.096976-2.397658 0.199805 1.998049 0.39961 4.295805 0.39961 6.593561l0.299707 0.299707z" p-id="1558"></path><path d="M898.622439 480.231024c15.884488-12.487805-10.289951-42.758244-19.980488-50.650536-14.485854-10.989268-40.860098-12.787512-56.145171-0.699317 3.096976 2.597463 5.594537 5.594537 6.993171 9.390829 3.29678 8.59161 1.698341 17.283122-0.599414 25.075512 0.699317-8.092098 0.499512-16.78361-3.696391-23.077463-3.996098-6.293854-11.189073-8.791415-18.382048-8.891317-14.585756-3.196878-31.369366 0.099902-46.25483 6.793366 13.386927-9.290927 29.271415-16.384 47.453659-16.184196 4.096 0.899122 8.192 2.497561 11.788488 4.89522 1.798244-18.881561-12.587707-31.469268-30.170537-38.662244-24.97561-10.389854-46.454634 1.498537-62.339122 20.979512 2.197854-15.98439-17.482927-32.967805-30.170536-38.662244-13.287024-5.994146-31.069659-7.592585-44.356683-1.098926-13.486829 6.493659-24.376195 22.078439-32.967805 33.467317-4.295805-16.284098-23.277268-26.773854-38.862049-25.77483-20.380098 1.298732-36.963902 21.179317-41.859122 39.861073 7.892293-1.298732 15.884488-0.79922 23.477073 1.098927 7.692488 1.898146 16.384 6.693463 18.282146 14.885464-3.396683-7.492683-11.788488-9.690537-18.981463-10.190049-7.39278-0.299707-15.185171 0.699317-21.678829 3.596488-13.386927 3.196878-28.172488 12.387902-35.265561 26.374244 4.195902-14.186146 14.885463-25.874732 28.771902-33.367415-9.790439-7.39278-25.774829-8.192-36.664195-5.894244-18.781659 3.796293-38.162732 22.977561-39.861073 41.159805-12.587707-9.191024-34.366439-7.39278-46.454634 1.698341-15.484878 11.688585-23.377171 42.058927-18.881561 58.442927 0 0.199805-80.221659 6.293854-37.26361 36.364488 16.483902 11.688585 5.294829 4.096 25.575024 11.688585-4.395707-0.299707-8.891317-0.499512-13.087219-0.999024 4.195902 0.499512 8.691512 0.79922 13.087219 0.999024 0.099902 0 0.199805 0.099902 0.299708 0.099903 5.694439 0.199805 11.388878 0.39961 16.883512 1.398634 23.676878 3.896195 47.353756 5.694439 71.230439 6.493659-22.378146 10.789463-118.284488 60.241171-73.927805 95.806439 46.454634 37.363512 74.227512-77.824 78.123707-95.506732 27.073561 0.79922 54.247024 0.499512 81.420488 0.099902-33.067707 20.48-69.831805 51.849366-38.961951 76.525269 38.362537 30.869854 64.037463-43.157854 73.927805-79.322537 12.387902-2.597463 23.876683-7.992195 32.568195-18.781658 20.779707 5.294829 41.75922 7.39278 63.138342 9.690536 71.230439 7.692488 143.659707 7.592585 212.992-12.088195 20.87961-6.193951 44.65639-14.485854 57.943414-32.768 18.581854-25.674927-34.865951-43.157854-57.144195-34.266537z m-435.274927 5.394732c-8.192-0.899122-17.283122 0.899122-24.076488 6.393756-6.993171 4.995122-11.588683 16.184195-21.678829 17.682732 9.590634-3.29678 11.388878-13.586732 18.382049-21.079415 6.893268-7.79239 17.283122-11.88839 27.87278-12.387902 10.289951 1.498537 19.68078 5.194927 27.972683 10.489756 8.192 5.294829 15.384976 12.887415 17.782634 22.278244-8.59161-17.283122-29.371317-23.576976-46.254829-23.377171zM580.433171 460.949854c-11.788488 0-23.976585 2.597463-33.667122 8.991219-9.890341 6.693463-17.482927 17.582829-19.480976 30.070634 0.499512-12.587707 6.493659-24.97561 16.483903-33.667122 10.090146-8.59161 23.077463-13.08722 36.164683-14.885463 13.187122-0.199805 26.374244 2.497561 37.962926 8.391805 11.588683 5.794341 21.479024 15.684683 25.37522 27.672975-11.688585-23.377171-40.060878-29.770927-62.838634-26.574048z m132.770341-26.174439c-9.191024-2.297756-18.681756-1.098927-27.373268 1.598439-17.882537 3.096976-36.664195 13.287024-46.154927 30.769951 6.693463-18.981463 24.17639-33.067707 43.957073-39.861073 10.389854-1.598439 21.379122-1.198829 31.069659 2.997073s17.083317 12.387902 20.779707 21.479024c-5.095024-8.59161-13.287024-14.885463-22.278244-16.983414z m150.652878 91.910244c2.597463-10.689561-2.797268-20.87961-10.389853-27.173464-7.79239-6.493659-17.383024-10.789463-26.973659-12.787512-18.581854-8.391805-40.16078-1.498537-61.04039 1.098927 10.190049-2.697366 19.880585-6.693463 30.470244-9.39083 10.389854-2.697366 22.378146-3.396683 33.167609-0.699317 10.689561 3.896195 20.280195 10.090146 27.672976 18.481952 7.592585 7.992195 11.48878 20.380098 7.093073 30.470244z m30.670049 21.479024c1.098927-0.39961 2.097951-0.79922 3.196878-0.999024 0.599415-0.299707 1.298732-0.299707 1.898146-0.499513-1.598439 0.599415-3.396683 0.999024-5.095024 1.498537z" p-id="1559"></path><path d="M294.712195 400.808585c14.885463 7.892293 38.862049 22.378146 70.03161 21.67883 1.898146 3.096976 4.49561 5.994146 8.092097 8.891317 19.980488 16.084293 36.46439 3.796293 49.052098-16.583805 15.884488 2.197854 31.369366 3.796293 46.254829 3.29678 5.394732-5.894244 11.988293-10.090146 19.980488-11.788487 10.689561-2.097951 29.970732-1.598439 41.859122 5.095024 4.49561-3.996098 8.491707-9.191024 12.288-15.185171-0.899122 1.898146-1.598439 3.796293-2.197854 5.794342 0.699317-2.097951 1.498537-4.096 2.397659-6.094049 0.299707-0.499512 0.599415-0.899122 0.799219-1.398634 6.393756-13.786537 17.283122-25.275317 32.967805-26.274342 11.988293-0.79922 27.972683 5.095024 37.463415 14.985366-1.398634-1.598439-2.797268-2.897171-4.49561-4.195902 1.298732-0.899122 2.597463-1.798244 3.896195-2.897171 0 0 56.145171-10.689561 17.482927-35.864976 6.094049-13.986341-2.897171-33.56722-21.279219-32.768 1.498537 3.196878 2.497561 7.192976 1.898146 10.889366-0.79922 5.794341-3.996098 9.390829-3.896195 9.390829-0.099902 0 1.898146-4.295805 1.398634-9.390829-0.299707-3.896195-2.497561-7.692488-4.49561-10.090146-0.199805 0-0.499512 0-0.699317 0.099902v-0.699317l-0.299707-0.299707v-0.299707l-0.499512-0.499513c-1.998049-2.197854-6.793366-5.594537-11.888391-6.393756-4.995122-0.79922-9.490732 0.699317-9.490731 0.599415 0 0.099902 3.796293-2.697366 9.590634-3.196878 4.096-0.39961 8.891317 0.999024 12.188097 2.997073-1.698341-16.78361-9.590634-27.073561-31.56917-27.073561-16.483902-16.483902-31.868878-29.07161-61.939513-16.483902-13.08722-13.08722-28.072585-46.554537-83.318634-23.277269-31.469268-16.983415-95.00722-25.674927-131.971122 0.699317 4.89522-0.499512 9.990244-0.599415 14.585756 0.099903 10.889366 1.498537 19.181268 4.89522 19.181269 4.795317 0 0.099902-8.791415-2.197854-19.480976-2.297756-7.39278-0.299707-15.484878 1.298732-21.678829 3.396683-0.499512 0.39961-0.79922 0.599415-1.198829 0.999024-0.199805 0-0.39961-0.099902-0.79922-0.199805-1.798244 0.699317-3.496585 1.398634-4.795317 2.097951-6.094049 2.797268-16.084293 10.090146-21.678829 19.181269-5.894244 8.891317-8.691512 17.582829-8.791415 17.482927 0.099902 0 1.498537-8.891317 6.493659-18.781659 4.395707-9.790439 13.986341-18.781659 20.979512-22.178341-19.181268-4.395707-48.852293-4.89522-59.342049 24.675902-27.073561 0-53.248 8.691512-66.035512 34.166634 3.69639-1.498537 7.892293-2.497561 11.88839-2.597463 7.992195-0.499512 13.486829 3.496585 13.486829 3.29678 0 0.299707-6.193951-2.497561-13.287024-0.699317-7.093073 1.398634-14.186146 5.994146-17.882537 8.99122-3.796293 2.897171-10.190049 8.391805-14.385951 14.485853-4.49561 5.894244-5.694439 12.088195-5.794341 12.088195 0 0 0-6.393756 3.596488-13.386926 2.097951-4.595512 5.494634-9.191024 8.791414-12.787513-20.180293 6.293854-44.756293 13.08722-56.54478 50.950244-20.87961 9.091122-47.953171 47.853268 87.614439 39.161756 109.493073 19.381073 104.697756 9.690537 125.477463 3.396683z m-56.54478-51.849365z m283.623024-78.123708c9.191024-5.294829 21.778732-7.592585 29.07161-6.593561 3.69639 0.299707 8.791415 1.298732 13.686634 4.195903 4.89522 2.697366 9.091122 7.992195 9.890341 13.486829 1.698341 11.089171-3.596488 18.781659-3.096975 18.781658-0.499512 0.099902 3.496585-8.691512 0.599414-18.182243-2.697366-10.090146-15.085268-13.187122-21.379122-13.287025-6.593561-0.79922-18.282146 0.099902-27.672975 3.996098-9.490732 3.596488-15.58478 9.990244-15.584781 9.990244s4.995122-7.39278 14.485854-12.387903z m-149.753756-30.670049c13.187122-6.193951 30.370341-9.490732 40.360585-8.591609 9.890341 0 28.27239 5.594537 36.963903 18.282146 8.192 11.189073 9.091122 22.777756 9.490731 24.376195-0.499512-1.598439-2.797268-12.987317-11.48878-22.677854-9.290927-11.089171-25.874732-14.885463-35.165659-14.885463-9.390829-0.899122-25.874732 0.899122-39.261658 5.894244-13.486829 4.595512-23.477073 11.48878-23.477073 11.48878 0 0.099902 9.191024-7.992195 22.577951-13.886439z m86.915122 34.266537z m-214.490537 38.362537c11.688585-18.681756 38.462439-23.676878 51.849366-23.776781 13.986341-0.899122 37.962927 2.597463 56.844488 10.589659 16.683707 6.293854 28.072585 16.084293 30.769951 18.781658 5.994146-5.394732 12.587707-9.390829 17.782634-11.089171 8.791415-3.796293 26.174439-4.695415 38.961952 0.79922 8.791415 3.396683 15.484878 8.192 18.781658 10.789463 7.292878-2.397659 14.585756-3.596488 19.680781-3.796292 11.48878-0.999024 32.268488 1.798244 46.854243 11.388878 7.39278 4.595512 12.68761 10.689561 15.185171 15.784585 2.497561 5.294829 2.897171 8.791415 2.997073 8.691512-0.099902 0.099902-0.79922-3.396683-3.69639-8.192-2.997073-4.695415-8.59161-10.090146-15.784585-13.986341-14.585756-7.992195-34.466341-9.191024-45.355708-8.391805-10.889366 0.39961-31.069659 3.69639-42.658341 15.684683-11.88839 11.688585-9.390829 27.473171-9.690537 27.672975 0.099902-0.39961-3.896195-15.784585 7.792391-29.271414 6.193951-7.492683 15.185171-12.188098 23.976585-15.185171-3.69639-2.397659-10.489756-6.193951-19.081366-8.59161-12.987317-4.096-28.472195-1.898146-36.46439 1.498537-8.291902 2.597463-21.479024 10.889366-29.671024 21.578927-7.79239 9.790439-11.88839 19.880585-12.387903 20.979512 0.499512-1.098927 3.29678-11.688585 10.389854-22.478049 3.096976-5.095024 7.492683-9.890341 12.088195-13.886439-2.797268-2.397659-14.785561-11.288976-31.569171-16.384-18.981463-6.693463-42.358634-8.791415-55.645658-7.992195-12.787512 0.199805-37.863024 3.496585-49.851317 20.280195-11.089171 15.784585-8.092098 33.467317-8.291903 34.566244 0.199805-0.999024-4.49561-18.382049 6.193951-36.06478z m-103.199219 53.547707c-0.199805 0 4.995122-8.491707 14.086244-16.284098 8.791415-7.892293 20.48-15.58478 27.672975-19.181268 7.093073-3.596488 20.280195-8.891317 32.268488-9.990244 11.88839-1.798244 20.87961 3.496585 20.979512 3.896195-0.39961-0.499512-9.690537-4.395707-20.679805-1.398634-11.388878 2.297756-23.477073 8.391805-30.370341 11.988293-6.993171 3.396683-18.981463 9.690537-28.372293 16.583805-9.690537 6.593561-15.784585 14.286049-15.58478 14.385951zM408.600976 780.138146c50.250927 40.260683 78.62322-97.90439 78.623219-97.90439s-128.774244 57.543805-78.623219 97.90439zM280.426146 677.238634c50.151024 40.260683 78.62322-97.90439 78.62322-97.90439s-128.774244 57.543805-78.62322 97.90439zM159.744 696.220098c50.250927 40.260683 78.62322-97.90439 78.62322-97.904391s-128.674341 57.643707-78.62322 97.904391zM344.86322 465.745171s-128.774244 57.643707-78.62322 97.90439 78.62322-97.90439 78.62322-97.90439zM288.018732 799.019707c50.151024 40.260683 78.62322-97.90439 78.623219-97.90439s-128.874146 57.643707-78.623219 97.90439zM388.72039 512.099902c-0.999024-3.596488-1.898146-7.79239-2.497561-12.188097-2.997073 3.596488-5.494634 7.093073-7.39278 10.689561 3.496585 0.099902 6.893268 0.599415 9.890341 1.498536z" p-id="1560"></path></svg>