<?xml version="1.0" standalone="no"?><!DOCTYPE svg PUBLIC "-//W3C//DTD SVG 1.1//EN" "http://www.w3.org/Graphics/SVG/1.1/DTD/svg11.dtd"><svg t="1681651686556" class="icon" viewBox="0 0 1024 1024" version="1.1" xmlns="http://www.w3.org/2000/svg" p-id="5199" xmlns:xlink="http://www.w3.org/1999/xlink" width="200" height="200"><path d="M511.999 511.999m-511.999 0a511.999 511.999 0 1 0 1023.998 0 511.999 511.999 0 1 0-1023.998 0Z" fill="#3A99D7" p-id="5200"></path><path d="M1016.945931 598.239842L586.809731 168.105642l-135.275321-3.324033-27.220266 43.428424 18.286178 19.324189-66.284647 434.290241 22.442219 23.688231-62.546611 109.50907L565.825526 1021.101972c222.756175-23.272227 403.119937-189.299849 447.588371-405.199957l0.622006-3.532035 1.03801-4.988049c0.622006-3.11603 1.246012-6.442063 1.662016-9.558093l0.210002 0.416004z" fill="#2682BF" p-id="5201"></path><path d="M463.796529 157.299536h96.624944c15.37815 0 30.130294 8.520083 33.662329 24.936244l5.818056 25.974253h-23.480229l-5.818057-25.974253c-0.622006-2.702026-7.896077-4.988049-10.390101-4.988049h-9.766096v52.572513h-10.596103V177.249731h-55.688544v52.572513h-10.596103V177.249731h-9.766096c-2.494024 0-9.766095 2.286022-10.390101 4.988049l-5.818057 25.974253h-23.480229l5.818057-25.974253c3.740037-16.41616 18.286179-24.936244 33.662328-24.936244l0.204002-0.002z" fill="#CCCCCC" p-id="5202"></path><path d="M428.472184 634.602197h25.55825l-12.26012 28.884282h140.883376l-12.26012-28.884282h25.55825l92.258901 160.623569H336.417285l92.258901-160.623569h-0.204002z m5.818057 46.130451l-12.468122 29.090284h180.15576l-12.468122-29.090284h-155.429518 0.210002z m-20.572201 48.416473l-16.208158 38.234373H626.70612l-16.41616-38.234373h-196.57192z" fill="#FFD630" p-id="5203"></path><path d="M448.834383 227.32622h126.547236c34.286335 0 72.518708 33.662329 80.624787 65.246637l54.442532 211.742068c8.104079 31.586308-28.260276 157.71554-62.338609 157.71554H618.186037l-0.208002-0.416004-7.064069-17.45417c-1.246012-2.910028-3.948039-5.818057-7.272071-5.818057h-185.767814c-3.324032 0-3.740037 2.910028-4.988049 5.818057l-7.064069 17.45417-0.208002 0.416004h-29.506288c-34.076333 0-70.65069-125.715228-62.338609-157.71554l54.442532-211.742068c8.104079-31.79231 46.338453-65.246637 80.622787-65.246637z" fill="#F5FBFC" p-id="5204"></path><path d="M512.003 227.32622h63.376619c34.286335 0 72.518708 33.662329 80.624787 65.246637l54.442532 211.742068c8.104079 31.586308-28.260276 157.71554-62.338609 157.71554H618.186037l-0.208002-0.416004-7.064069-17.45417c-1.246012-2.910028-3.948039-5.818057-7.272071-5.818057H512.211002V227.120218l-0.208002 0.206002z" fill="#D3EEF0" p-id="5205"></path><path d="M445.094347 256.210502h127.585246c32.000313 0 49.038479 27.844272 58.182568 59.012576l35.740349 121.143183c9.144089 30.962302-26.182256 59.012576-58.182568 59.012577h-193.039886c-32.000313 0-66.078645-27.428268-58.182568-59.012577l29.71429-121.143183c7.688075-31.376306 26.182256-59.012576 58.182569-59.012576z" fill="#A7D6D9" p-id="5206"></path><path d="M447.174367 259.742537h123.637207c30.962302 0 47.586465 26.804262 56.518552 56.518551l34.702339 115.949133c8.936087 29.71429-25.55825 56.518552-56.518552 56.518552h-187.223828c-30.962302 0-64.000625-26.390258-56.518552-56.518552l28.884282-115.949133c7.476073-30.128294 25.348248-56.518552 56.518552-56.518551z" fill="#00D9FF" p-id="5207"></path><path d="M490.602791 259.742537h81.038791l-156.053524 228.988236c-24.310237-1.246012-48.832477-17.870175-53.820525-39.688388l129.04126-189.299848h-0.206002z m99.948976 4.15604c7.688075 3.532034 13.922136 9.144089 19.324189 16.000156l-142.33939 208.83204h-30.130294l153.145495-224.832196z" fill="#EBFCFF" p-id="5208"></path><path d="M416.420067 584.945712m-35.740349 0a35.740349 35.740349 0 1 0 71.480698 0 35.740349 35.740349 0 1 0-71.480698 0Z" fill="#00D9FF" p-id="5209"></path><path d="M416.420067 584.945712m-25.974254 0a25.974254 25.974254 0 1 0 51.948507 0 25.974254 25.974254 0 1 0-51.948507 0Z" fill="#FFD630" p-id="5210"></path><path d="M607.599934 584.945712m-35.740349 0a35.740349 35.740349 0 1 0 71.480698 0 35.740349 35.740349 0 1 0-71.480698 0Z" fill="#00D9FF" p-id="5211"></path><path d="M607.599934 584.945712m-25.974254 0a25.974254 25.974254 0 1 0 51.948507 0 25.974254 25.974254 0 1 0-51.948507 0Z" fill="#FFD630" p-id="5212"></path></svg>